{"title":"Wire in the Blood S06","uid":11534010,"size":3381346037,"categoryP":"video","categoryS":"tv_shows","magnet":"?xt=urn:btih:4a227210e4b6c2e2279dd74120d7057bbb34f7cc&amp;dn=Wire+in+the+Blood+S06&amp;tr=udp%3A%2F%2Ftracker.openbittorrent.com%3A80&amp;tr=udp%3A%2F%2Fopen.demonii.com%3A1337&amp;tr=udp%3A%2F%2Ftracker.coppersurfer.tk%3A6969&amp;tr=udp%3A%2F%2Fexodus.desync.com%3A6969","seeders":6,"leechers":5,"uploader":"RedBaron58","files":5,"time":1416607044,"description":"Wire in the Blood S06 plus special - Crime Drama x264 mp4\n  &lt;a href=&quot;\nhttp://www.imdb.com/title/tt0337792/&quot; rel=&quot;nofollow&quot; target=&quot;_NEW&quot;&gt;\nhttp://www.imdb.com/title/tt0337792/&lt;/a&gt;\n\nTrailer:\n\n\nThank you for your kind comments and thumbs ups on my other torrents, your feedback is welcome.\n\n\nAbout the Series:\nSet in the fictional English city of Bradfield, clinical psychologist Dr. Tony Hill is recruited as a \ncriminal profiler for the police department. Aiding D.I. Alex Fielding, the doctor's eccentric methods \nand deep understanding of the criminal mind help track down vicious serial killers and solve the most \ngruesome of crimes.\n\nAbout the Special:\nTony Hill finds himself in unfamiliar surroundings when he travels to Texas to assist the local district \nattorney in the case of Darius Grady who is accused of murdering his wife and two children.\n\nStarring Robson Green\n\n\nI hope you enjoy.\n\n\nTechnical: (All episodes and the special are encoded to the same settings)\n\nGeneral\nComplete name                            : H:Wire in the Blood S06Wire In The Blood S06E01 Unnatural Vices x264 RB58.mp4\nFormat                                   : MPEG-4\nFormat profile                           : Base Media / Version 2\nCodec ID                                 : mp42\nFile size                                : 644 MiB\nDuration                                 : 1h 30mn\nOverall bit rate mode                    : Variable\nOverall bit rate                         : 1 000 Kbps\nEncoded date                             : UTC 2014-09-01 14:06:24\nTagged date                              : UTC 2014-09-01 14:26:57\nWriting application                      : HandBrake 0.9.8 2012071700\n\nVideo\nID                                       : 1\nFormat                                   : AVC\nFormat/Info                              : Advanced Video Codec\nFormat profile                           : &lt;a class=&quot;__cf_email__&quot; href=&quot;/cdn-cgi/l/email-protection&quot; data-cfemail=&quot;3d705c54537d710e130d&quot;&gt;[email&amp;#160;protected]&lt;/a&gt;&lt;script cf-hash='f9e31' type=&quot;text/javascript&quot;&gt;\n/* &lt;![CDATA[ */!function(){try{var t=&quot;currentScript&quot;in document?document.currentScript:function(){for(var t=document.getElementsByTagName(&quot;script&quot;),e=t.length;e--;)if(t[e].getAttribute(&quot;cf-hash&quot;))return t[e]}();if(t&amp;&amp;t.previousSibling){var e,r,n,i,c=t.previousSibling,a=c.getAttribute(&quot;data-cfemail&quot;);if(a){for(e=&quot;&quot;,r=parseInt(a.substr(0,2),16),n=2;a.length-n;n+=2)i=parseInt(a.substr(n,2),16)^r,e+=String.fromCharCode(i);e=document.createTextNode(e),c.parentNode.replaceChild(e,c)}}}catch(u){}}();/* ]]&gt; */&lt;/script&gt;\nFormat settings, CABAC                   : Yes\nFormat settings, ReFrames                : 4 frames\nCodec ID                                 : avc1\nCodec ID/Info                            : Advanced Video Coding\nDuration                                 : 1h 30mn\nBit rate mode                            : Variable\nBit rate                                 : 900 Kbps\nWidth                                    : 720 pixels\nHeight                                   : 576 pixels\nDisplay aspect ratio                     : 16:9\nFrame rate mode                          : Variable\nFrame rate                               : 25.000 fps\nMinimum frame rate                       : 25.000 fps\nMaximum frame rate                       : 58.824 fps\nStandard                                 : PAL\nColor space                              : YUV\nChroma subsampling                       : 4:2:0\nBit depth                                : 8 bits\nScan type                                : Progressive\nBits/(Pixel*Frame)                       : 0.087\nStream size                              : 580 MiB (90%)\nWriting library                          : x264 core 120\nEncoding settings                        : cabac=1 / ref=1 / deblock=1:0:0\nEncoded date                             : UTC 2014-09-01 14:06:24\nTagged date                              : UTC 2014-09-01 14:26:57\nColor primaries                          : BT.601 NTSC\nTransfer characteristics                 : BT.709\nMatrix coefficients                      : BT.601\n\nAudio\nID                                       : 2\nFormat                                   : AAC\nFormat/Info                              : Advanced Audio Codec\nFormat profile                           : LC\nCodec ID                                 : 40\nDuration                                 : 1h 30mn\nBit rate mode                            : Variable\nBit rate                                 : 96.0 Kbps\nMaximum bit rate                         : 128 Kbps\nChannel(s)                               : 2 channels\nChannel positions                        : Front: L R\nSampling rate                            : 48.0 KHz\nCompression mode                         : Lossy\nDelay relative to video                  : 80ms\nStream size                              : 61.9 MiB (10%)\nEncoded date                             : UTC 2014-09-01 14:06:24\nTagged date                              : UTC 2014-09-01 14:26:54","torrent":{"xt":"urn:btih:4a227210e4b6c2e2279dd74120d7057bbb34f7cc","amp;dn":"Wire+in+the+Blood+S06","amp;tr":["udp%3A%2F%2Ftracker.openbittorrent.com%3A80","udp%3A%2F%2Fopen.demonii.com%3A1337","udp%3A%2F%2Ftracker.coppersurfer.tk%3A6969","udp%3A%2F%2Fexodus.desync.com%3A6969"],"infoHash":"4a227210e4b6c2e2279dd74120d7057bbb34f7cc","infoHashBuffer":{"type":"Buffer","data":[74,34,114,16,228,182,194,226,39,157,215,65,32,215,5,123,187,52,247,204]},"announce":[],"urlList":[]}}